<mxfile host="app.diagrams.net" agent="Mozilla/5.0 (Windows NT 10.0; Win64; x64) AppleWebKit/537.36 (KHTML, like Gecko) Chrome/140.0.0.0 Safari/537.36" version="28.2.5">
  <diagram name="Trang-1" id="_euxOHHBJPjm9D9nniFV">
    <mxGraphModel grid="0" page="1" gridSize="10" guides="1" tooltips="1" connect="1" arrows="1" fold="1" pageScale="1" pageWidth="827" pageHeight="1169" math="0" shadow="0">
      <root>
        <mxCell id="0" />
        <mxCell id="1" parent="0" />
        <mxCell id="xzqrR-T9Bh7oMfQPkMJb-1" value="Single-Page Application&lt;div&gt;&lt;font style=&quot;font-size: 8px;&quot;&gt;[Container: Javascript and Argular]&lt;/font&gt;&lt;/div&gt;&lt;div&gt;&lt;font style=&quot;font-size: 8px;&quot;&gt;&lt;br&gt;&lt;/font&gt;&lt;/div&gt;&lt;div&gt;&lt;span style=&quot;font-size: 8px;&quot;&gt;Provides all of the Fastfood Delivery functionality to customers vid their web browser&lt;/span&gt;&lt;/div&gt;" style="rounded=1;whiteSpace=wrap;html=1;fillColor=#1ba1e2;fontColor=#ffffff;strokeColor=#006EAF;" vertex="1" parent="1">
          <mxGeometry x="35" y="410" width="190" height="80" as="geometry" />
        </mxCell>
        <mxCell id="xzqrR-T9Bh7oMfQPkMJb-2" value="" style="swimlane;startSize=0;" vertex="1" parent="1">
          <mxGeometry x="30" y="400" width="200" height="160" as="geometry" />
        </mxCell>
        <mxCell id="xzqrR-T9Bh7oMfQPkMJb-3" value="Web Browser&lt;div&gt;&lt;font style=&quot;font-size: 8px;&quot;&gt;[Deployment Node: Chrome, Firefox or Safari]&lt;/font&gt;&lt;/div&gt;" style="text;html=1;align=left;verticalAlign=middle;resizable=0;points=[];autosize=1;strokeColor=none;fillColor=none;" vertex="1" parent="xzqrR-T9Bh7oMfQPkMJb-2">
          <mxGeometry y="120" width="190" height="40" as="geometry" />
        </mxCell>
        <mxCell id="xzqrR-T9Bh7oMfQPkMJb-4" value="Web Application&lt;div&gt;&lt;font style=&quot;font-size: 8px;&quot;&gt;[Container: java and Spring MVC]&lt;/font&gt;&lt;/div&gt;&lt;div&gt;&lt;font style=&quot;font-size: 8px;&quot;&gt;&lt;br&gt;&lt;/font&gt;&lt;/div&gt;&lt;div&gt;&lt;font style=&quot;font-size: 8px;&quot;&gt;Delivers the static content and the Fastfood Delivery single page application&lt;/font&gt;&lt;/div&gt;" style="rounded=1;whiteSpace=wrap;html=1;fillColor=#1ba1e2;fontColor=#ffffff;strokeColor=#006EAF;" vertex="1" parent="1">
          <mxGeometry x="351" y="410" width="210" height="80" as="geometry" />
        </mxCell>
        <mxCell id="xzqrR-T9Bh7oMfQPkMJb-5" value="" style="swimlane;startSize=0;" vertex="1" parent="1">
          <mxGeometry x="341" y="400" width="230" height="160" as="geometry" />
        </mxCell>
        <mxCell id="xzqrR-T9Bh7oMfQPkMJb-6" value="Web Browser&lt;div&gt;&lt;font style=&quot;font-size: 8px;&quot;&gt;[Deployment Node: Apache Tomcat 8.x]&lt;/font&gt;&lt;/div&gt;" style="text;html=1;align=left;verticalAlign=middle;resizable=0;points=[];autosize=1;strokeColor=none;fillColor=none;" vertex="1" parent="xzqrR-T9Bh7oMfQPkMJb-5">
          <mxGeometry x="10" y="120" width="160" height="40" as="geometry" />
        </mxCell>
        <mxCell id="xzqrR-T9Bh7oMfQPkMJb-7" value="API Application&lt;div&gt;&lt;font style=&quot;font-size: 8px;&quot;&gt;[Container: java and Spring MVC]&lt;/font&gt;&lt;/div&gt;&lt;div&gt;&lt;font style=&quot;font-size: 8px;&quot;&gt;&lt;br&gt;&lt;/font&gt;&lt;/div&gt;&lt;div&gt;&lt;font style=&quot;font-size: 8px;&quot;&gt;Provides Fastfood Delivery functionality via a JSON/HTTPS API&lt;/font&gt;.&lt;/div&gt;" style="rounded=1;whiteSpace=wrap;html=1;fillColor=#1ba1e2;fontColor=#ffffff;strokeColor=#006EAF;" vertex="1" parent="1">
          <mxGeometry x="641" y="70" width="200" height="80" as="geometry" />
        </mxCell>
        <mxCell id="xzqrR-T9Bh7oMfQPkMJb-8" value="" style="swimlane;startSize=0;" vertex="1" parent="1">
          <mxGeometry x="626" y="60" width="240" height="200" as="geometry" />
        </mxCell>
        <mxCell id="xzqrR-T9Bh7oMfQPkMJb-9" value="Nginx/ Kong AWS API Gateway&lt;div&gt;&lt;font style=&quot;font-size: 8px;&quot;&gt;[Deployment Node: Kubernetes Cluster/Cloud VM]&lt;/font&gt;&lt;/div&gt;" style="text;html=1;align=left;verticalAlign=middle;resizable=0;points=[];autosize=1;strokeColor=none;fillColor=none;" vertex="1" parent="xzqrR-T9Bh7oMfQPkMJb-8">
          <mxGeometry x="5" y="150" width="200" height="40" as="geometry" />
        </mxCell>
        <mxCell id="xzqrR-T9Bh7oMfQPkMJb-10" value="" style="swimlane;startSize=0;" vertex="1" parent="1">
          <mxGeometry x="992.5" y="100" width="213" height="90" as="geometry" />
        </mxCell>
        <mxCell id="xzqrR-T9Bh7oMfQPkMJb-11" value="Restaurant POS/Tablet App&lt;div&gt;&lt;br&gt;&lt;div&gt;&lt;font style=&quot;font-size: 8px;&quot;&gt;[Container:Native/Hybrid App]&lt;/font&gt;&lt;/div&gt;&lt;/div&gt;&lt;div&gt;&lt;span style=&quot;font-size: 8px;&quot;&gt;Receives and confirm customer orders via API&lt;/span&gt;&lt;/div&gt;" style="rounded=1;whiteSpace=wrap;html=1;fillColor=#647687;fontColor=#ffffff;strokeColor=#314354;" vertex="1" parent="xzqrR-T9Bh7oMfQPkMJb-10">
          <mxGeometry x="10" y="10" width="193" height="60" as="geometry" />
        </mxCell>
        <mxCell id="xzqrR-T9Bh7oMfQPkMJb-12" value="Order Service&lt;div&gt;&lt;br&gt;&lt;/div&gt;&lt;div&gt;&lt;font style=&quot;font-size: 9px;&quot;&gt;[Container: Java Spring Boot/Node js]&lt;/font&gt;&lt;/div&gt;&lt;div&gt;&lt;font style=&quot;font-size: 9px;&quot;&gt;Communicates with Delivery Service API for assignments &amp;amp; navigation&lt;/font&gt;&lt;/div&gt;" style="rounded=1;whiteSpace=wrap;html=1;fillColor=#1ba1e2;fontColor=#ffffff;strokeColor=#006EAF;" vertex="1" parent="1">
          <mxGeometry x="631" y="410" width="210" height="80" as="geometry" />
        </mxCell>
        <mxCell id="xzqrR-T9Bh7oMfQPkMJb-13" value="" style="swimlane;startSize=0;" vertex="1" parent="1">
          <mxGeometry x="621" y="400" width="230" height="170" as="geometry" />
        </mxCell>
        <mxCell id="xzqrR-T9Bh7oMfQPkMJb-14" value="Application Server&lt;div&gt;&lt;font style=&quot;font-size: 8px;&quot;&gt;[Deployment Node: Uuntu 20.04 LTS]&lt;/font&gt;&lt;/div&gt;" style="text;html=1;align=left;verticalAlign=middle;resizable=0;points=[];autosize=1;strokeColor=none;fillColor=none;" vertex="1" parent="xzqrR-T9Bh7oMfQPkMJb-13">
          <mxGeometry x="5" y="130" width="160" height="40" as="geometry" />
        </mxCell>
        <mxCell id="xzqrR-T9Bh7oMfQPkMJb-15" value="" style="swimlane;startSize=0;" vertex="1" parent="1">
          <mxGeometry x="960" y="292" width="260" height="210" as="geometry" />
        </mxCell>
        <mxCell id="xzqrR-T9Bh7oMfQPkMJb-16" value="Database Server&lt;div&gt;&lt;font style=&quot;font-size: 8px;&quot;&gt;[Deployment Node: Ubuntu 20.04 LTS]&lt;/font&gt;&lt;/div&gt;" style="text;html=1;align=left;verticalAlign=middle;resizable=0;points=[];autosize=1;strokeColor=none;fillColor=none;" vertex="1" parent="xzqrR-T9Bh7oMfQPkMJb-15">
          <mxGeometry x="10" y="170" width="160" height="40" as="geometry" />
        </mxCell>
        <mxCell id="xzqrR-T9Bh7oMfQPkMJb-17" value="" style="endArrow=block;dashed=1;endFill=0;endSize=12;html=1;rounded=0;exitX=0.5;exitY=0;exitDx=0;exitDy=0;entryX=0.25;entryY=0;entryDx=0;entryDy=0;edgeStyle=orthogonalEdgeStyle;" edge="1" parent="1" source="xzqrR-T9Bh7oMfQPkMJb-2" target="xzqrR-T9Bh7oMfQPkMJb-13">
          <mxGeometry width="160" relative="1" as="geometry">
            <mxPoint x="451" y="20" as="sourcePoint" />
            <mxPoint x="251" y="230" as="targetPoint" />
            <Array as="points">
              <mxPoint x="171" y="340" />
              <mxPoint x="678" y="340" />
            </Array>
          </mxGeometry>
        </mxCell>
        <mxCell id="xzqrR-T9Bh7oMfQPkMJb-18" value="" style="endArrow=block;dashed=1;endFill=0;endSize=12;html=1;rounded=0;exitX=0.5;exitY=0;exitDx=0;exitDy=0;entryX=0.457;entryY=1.006;entryDx=0;entryDy=0;entryPerimeter=0;" edge="1" parent="1" source="xzqrR-T9Bh7oMfQPkMJb-13" target="xzqrR-T9Bh7oMfQPkMJb-8">
          <mxGeometry width="160" relative="1" as="geometry">
            <mxPoint x="751" y="310" as="sourcePoint" />
            <mxPoint x="911" y="310" as="targetPoint" />
          </mxGeometry>
        </mxCell>
        <mxCell id="xzqrR-T9Bh7oMfQPkMJb-19" value="Routes requests to&amp;nbsp;&lt;div&gt;backend services&lt;/div&gt;" style="edgeLabel;html=1;align=center;verticalAlign=middle;resizable=0;points=[];" connectable="0" vertex="1" parent="xzqrR-T9Bh7oMfQPkMJb-18">
          <mxGeometry x="-0.097" relative="1" as="geometry">
            <mxPoint as="offset" />
          </mxGeometry>
        </mxCell>
        <mxCell id="xzqrR-T9Bh7oMfQPkMJb-20" value="" style="endArrow=block;dashed=1;endFill=0;endSize=12;html=1;rounded=0;exitX=0;exitY=0.5;exitDx=0;exitDy=0;entryX=1;entryY=0.5;entryDx=0;entryDy=0;" edge="1" parent="1" source="xzqrR-T9Bh7oMfQPkMJb-5" target="xzqrR-T9Bh7oMfQPkMJb-2">
          <mxGeometry width="160" relative="1" as="geometry">
            <mxPoint x="261" y="250" as="sourcePoint" />
            <mxPoint x="361" y="630" as="targetPoint" />
          </mxGeometry>
        </mxCell>
        <mxCell id="xzqrR-T9Bh7oMfQPkMJb-21" value="" style="endArrow=block;dashed=1;endFill=0;endSize=12;html=1;rounded=0;exitX=1;exitY=0.5;exitDx=0;exitDy=0;entryX=-0.002;entryY=0.661;entryDx=0;entryDy=0;entryPerimeter=0;" edge="1" parent="1" source="xzqrR-T9Bh7oMfQPkMJb-8" target="xzqrR-T9Bh7oMfQPkMJb-10">
          <mxGeometry width="160" relative="1" as="geometry">
            <mxPoint x="781" y="320" as="sourcePoint" />
            <mxPoint x="941" y="320" as="targetPoint" />
          </mxGeometry>
        </mxCell>
        <mxCell id="xzqrR-T9Bh7oMfQPkMJb-22" value="" style="endArrow=block;dashed=1;endFill=0;endSize=12;html=1;rounded=0;exitX=1;exitY=0.5;exitDx=0;exitDy=0;entryX=0;entryY=0.5;entryDx=0;entryDy=0;" edge="1" parent="1" source="xzqrR-T9Bh7oMfQPkMJb-13" target="xzqrR-T9Bh7oMfQPkMJb-15">
          <mxGeometry width="160" relative="1" as="geometry">
            <mxPoint x="821" y="390" as="sourcePoint" />
            <mxPoint x="981" y="390" as="targetPoint" />
          </mxGeometry>
        </mxCell>
        <mxCell id="xzqrR-T9Bh7oMfQPkMJb-23" value="" style="endArrow=block;dashed=1;endFill=0;endSize=12;html=1;rounded=0;exitX=0.5;exitY=0;exitDx=0;exitDy=0;entryX=0.534;entryY=0.993;entryDx=0;entryDy=0;entryPerimeter=0;" edge="1" parent="1" source="xzqrR-T9Bh7oMfQPkMJb-30" target="xzqrR-T9Bh7oMfQPkMJb-16">
          <mxGeometry width="160" relative="1" as="geometry">
            <mxPoint x="841" y="420" as="sourcePoint" />
            <mxPoint x="1001" y="420" as="targetPoint" />
          </mxGeometry>
        </mxCell>
        <mxCell id="xzqrR-T9Bh7oMfQPkMJb-24" value="" style="endArrow=block;dashed=1;endFill=0;endSize=12;html=1;rounded=0;exitX=0.66;exitY=1.05;exitDx=0;exitDy=0;exitPerimeter=0;entryX=0;entryY=0.5;entryDx=0;entryDy=0;" edge="1" parent="1" source="xzqrR-T9Bh7oMfQPkMJb-14" target="xzqrR-T9Bh7oMfQPkMJb-30">
          <mxGeometry width="160" relative="1" as="geometry">
            <mxPoint x="781" y="400" as="sourcePoint" />
            <mxPoint x="941" y="400" as="targetPoint" />
          </mxGeometry>
        </mxCell>
        <mxCell id="xzqrR-T9Bh7oMfQPkMJb-25" value="Send delivery&amp;nbsp;&lt;div&gt;assignment details&lt;/div&gt;" style="text;whiteSpace=wrap;html=1;" vertex="1" parent="1">
          <mxGeometry x="781" y="630" width="210" height="40" as="geometry" />
        </mxCell>
        <mxCell id="xzqrR-T9Bh7oMfQPkMJb-26" value="" style="endArrow=block;dashed=1;endFill=0;endSize=12;html=1;rounded=0;exitX=0.69;exitY=1.013;exitDx=0;exitDy=0;entryX=0.75;entryY=0;entryDx=0;entryDy=0;exitPerimeter=0;" edge="1" parent="1" source="xzqrR-T9Bh7oMfQPkMJb-8" target="xzqrR-T9Bh7oMfQPkMJb-13">
          <mxGeometry width="160" relative="1" as="geometry">
            <mxPoint x="781" y="400" as="sourcePoint" />
            <mxPoint x="941" y="400" as="targetPoint" />
          </mxGeometry>
        </mxCell>
        <mxCell id="xzqrR-T9Bh7oMfQPkMJb-27" value="Forward request for&amp;nbsp;&lt;div&gt;order processing&lt;/div&gt;" style="text;html=1;align=center;verticalAlign=middle;resizable=0;points=[];autosize=1;strokeColor=none;fillColor=none;" vertex="1" parent="1">
          <mxGeometry x="781" y="320" width="130" height="40" as="geometry" />
        </mxCell>
        <mxCell id="xzqrR-T9Bh7oMfQPkMJb-28" value="" style="swimlane;startSize=0;" vertex="1" parent="1">
          <mxGeometry x="331" y="30" width="970" height="730" as="geometry" />
        </mxCell>
        <mxCell id="xzqrR-T9Bh7oMfQPkMJb-29" value="Makes API calls to&amp;nbsp;&lt;div&gt;(JSON/HTTPS)&lt;/div&gt;" style="text;html=1;align=center;verticalAlign=middle;resizable=0;points=[];autosize=1;strokeColor=none;fillColor=none;" vertex="1" parent="xzqrR-T9Bh7oMfQPkMJb-28">
          <mxGeometry x="140" y="270" width="120" height="40" as="geometry" />
        </mxCell>
        <mxCell id="xzqrR-T9Bh7oMfQPkMJb-30" value="Driver App&lt;div&gt;&lt;font style=&quot;font-size: 8px;&quot;&gt;Delivery Driver&#39;s Smartphone&lt;/font&gt;&lt;/div&gt;" style="rounded=1;whiteSpace=wrap;html=1;fillColor=#647687;fontColor=#ffffff;strokeColor=#314354;" vertex="1" parent="xzqrR-T9Bh7oMfQPkMJb-28">
          <mxGeometry x="626" y="560" width="195" height="90" as="geometry" />
        </mxCell>
        <mxCell id="xzqrR-T9Bh7oMfQPkMJb-31" value="Update delivery status" style="text;html=1;align=center;verticalAlign=middle;resizable=0;points=[];autosize=1;strokeColor=none;fillColor=none;" vertex="1" parent="xzqrR-T9Bh7oMfQPkMJb-28">
          <mxGeometry x="720" y="510" width="140" height="30" as="geometry" />
        </mxCell>
        <mxCell id="xzqrR-T9Bh7oMfQPkMJb-32" value="Read/write&amp;nbsp;&lt;div&gt;order&amp;nbsp;&lt;span style=&quot;background-color: transparent; color: light-dark(rgb(0, 0, 0), rgb(255, 255, 255));&quot;&gt;data&lt;/span&gt;&lt;/div&gt;" style="text;html=1;align=center;verticalAlign=middle;resizable=0;points=[];autosize=1;strokeColor=none;fillColor=none;" vertex="1" parent="xzqrR-T9Bh7oMfQPkMJb-28">
          <mxGeometry x="546" y="420" width="80" height="40" as="geometry" />
        </mxCell>
        <mxCell id="xzqrR-T9Bh7oMfQPkMJb-33" value="Send order details for&amp;nbsp;&lt;div&gt;confirmation&lt;/div&gt;" style="text;html=1;align=center;verticalAlign=middle;resizable=0;points=[];autosize=1;strokeColor=none;fillColor=none;" vertex="1" parent="xzqrR-T9Bh7oMfQPkMJb-28">
          <mxGeometry x="530" y="90" width="140" height="40" as="geometry" />
        </mxCell>
        <mxCell id="xzqrR-T9Bh7oMfQPkMJb-34" value="Database&lt;div&gt;&lt;font style=&quot;font-size: 8px;&quot;&gt;[Container: PostgreSQL/MySQL]&lt;/font&gt;&lt;/div&gt;&lt;div&gt;&lt;font style=&quot;font-size: 8px;&quot;&gt;&lt;br&gt;&lt;/font&gt;&lt;/div&gt;&lt;div&gt;&lt;font style=&quot;font-size: 8px;&quot;&gt;Stores user registration information, hashed authentication credentials, access logs, etc.&lt;/font&gt;&lt;/div&gt;&lt;div&gt;&lt;br&gt;&lt;/div&gt;" style="shape=cylinder3;whiteSpace=wrap;html=1;boundedLbl=1;backgroundOutline=1;size=15;fillColor=#1ba1e2;fontColor=#ffffff;strokeColor=#006EAF;" vertex="1" parent="xzqrR-T9Bh7oMfQPkMJb-28">
          <mxGeometry x="660" y="280" width="210" height="130" as="geometry" />
        </mxCell>
        <mxCell id="xzqrR-T9Bh7oMfQPkMJb-35" value="Delivers to the&amp;nbsp;&lt;div&gt;customer&#39;s&lt;div&gt;web browser&lt;/div&gt;&lt;/div&gt;" style="text;html=1;align=center;verticalAlign=middle;resizable=0;points=[];autosize=1;strokeColor=none;fillColor=none;" vertex="1" parent="1">
          <mxGeometry x="231" y="480" width="100" height="60" as="geometry" />
        </mxCell>
      </root>
    </mxGraphModel>
  </diagram>
</mxfile>
